# AST/ASF file generated using VICON BodyLanguage
# -----------------------------------------------
:version 1.10
:name VICON
:units
  mass 1.0
  length 0.45
  angle deg
:documentation
   .ast/.asf automatically generated from VICON data using
   VICON BodyBuilder and BodyLanguage model FoxedUp or BRILLIANT.MOD
:root
   order TX TY TZ RX RY RZ
   axis XYZ
   position 0 0 0  
   orientation 0 0 0 
:bonedata
  begin
     id 1 
     name lhipjoint
     direction 0.646657 -0.683706 0.338203 
     length 2.4948 
     axis 0 0 0  XYZ
  end
  begin
     id 2 
     name lfemur
     direction 0.34202 -0.939693 0  
     length 6.79491  
     axis 0 0 20  XYZ
    dof rx ry rz
    limits (-160.0 20.0)
           (-70.0 70.0)
           (-60.0 70.0)
  end
  begin
     id 3 
     name ltibia
     direction 0.34202 -0.939693 0   
     length 7.56807   
     axis 0 0 20   XYZ
    dof rx
    limits (-10.0 170.0)
  end
  begin
     id 4 
     name lfoot
     direction 0.0679796 -0.186772 0.980048   
     length 2.53018   
     axis -90 7.62852e-016 20   XYZ
    dof rx rz
    limits (-45.0 90.0)
           (-70.0 20.0)
  end
  begin
     id 5 
     name ltoes
     direction 1.53625e-011 -4.21881e-011 1   
     length 1.26912   
     axis -90 7.62852e-016 20   XYZ
    dof rx
    limits (-90.0 20.0)
  end
  begin
     id 6 
     name rhipjoint
     direction -0.618868 -0.704065 0.348274   
     length 2.42265  
     axis 0 0 0  XYZ 
  end
  begin
     id 7 
     name rfemur
     direction -0.34202 -0.939693 0   
     length 6.73814   
     axis 0 0 -20   XYZ
    dof rx ry rz
    limits (-160.0 20.0)
           (-70.0 70.0)
           (-70.0 60.0)
  end
  begin
     id 8 
     name rtibia
     direction -0.34202 -0.939693 0   
     length 7.66799   
     axis 0 0 -20   XYZ
    dof rx
    limits (-10.0 170.0)
 end
 begin
     id 9 
     name rfoot
     direction -0.0727352 -0.199838 0.977125   
     length 2.57224  
     axis -90 -7.62852e-016 -20   XYZ
    dof rx rz
    limits (-45.0 90.0)
           (-20.0 70.0)
  end
  begin
     id 10 
     name rtoes
     direction -1.53501e-011 -4.21858e-011 1   
     length 1.28858   
     axis -90 -7.62852e-016 -20   XYZ
    dof rx
    limits (-90.0 20.0)
  end
  begin
     id 11 
     name lowerback
     direction -0.0172471 0.995767 -0.0902851   
     length 2.20206   
     axis 0 0 0   XYZ
    dof rx ry rz
    limits (-20.0 45.0)
           (-30.0 30.0)
           (-30.0 30.0)
  end
  begin
     id 12 
     name upperback
     direction -0.000110737 0.999714 0.0239043   
     length 2.19523   
     axis 0 0 0   XYZ
    dof rx ry rz
    limits (-20.0 45.0)
           (-30.0 30.0)
           (-30.0 30.0)
  end
  begin
     id 13 
     name thorax
     direction 0.00704869 0.997783 0.0661741   
     length 2.21977   
     axis 0 0 0   XYZ
    dof rx ry rz
    limits (-20.0 45.0)
           (-30.0 30.0)
           (-30.0 30.0)
  end
  begin
     id 14 
     name lowerneck
     direction -0.00407501 0.995527 0.0943846   
     length 1.83142   
     axis 0 0 0   XYZ
    dof rx ry rz
    limits (-20.0 45.0)
           (-30.0 30.0)
           (-30.0 30.0)
  end
  begin
     id 15 
     name upperneck
     direction 0.0640586 0.986486 -0.150807   
     length 1.84616   
     axis 0 0 0   XYZ
    dof rx ry rz
    limits (-20.0 45.0)
           (-30.0 30.0)
           (-30.0 30.0)
  end
  begin
     id 16
     name head
     direction 0.0188017 0.99791 -0.0618239  
     length 1.85932  
     axis 0 0 0   XYZ
    dof rx ry rz
    limits (-20.0 45.0)
           (-30.0 30.0)
           (-30.0 30.0)
  end
  begin
     id 17 
     name lclavicle
     direction 0.976074 0.206905 0.066852  
     length 3.81043  
     axis 0 0 0   XYZ
    dof ry rz
    limits (-20.0 10.0)
           (0.0 20.0)
  end
  begin
     id 18 
     name lhumerus
     direction 1 -4.48971e-011 1.86916e-027   
     length 5.37587   
     axis 180 -30 -90   XYZ
    dof rx ry rz
    limits (-60.0 90.0)
           (-90.0 90.0)
           (-90.0 90.0)
  end
  begin
     id 19
     name lradius
     direction 1 -4.48968e-011 1.69187e-027   
     length 3.35977   
     axis 180 -30 -90   XYZ
    dof rx
    limits (-10.0 170.0)
  end
  begin
     id 20
     name lwrist
     direction 1 -4.48968e-011 5.8978e-027   
     length 1.67988   
     axis -3.27506e-015 90 90   XYZ
    dof ry
    limits (-180.0 0.0)
 end
  begin
     id 21 
     name lhand
     direction 1 -4.49028e-011 1.18071e-026   
     length 0.561859   
     axis -7.52654e-015 90 90   XYZ
    dof rx rz
    limits (-90.0 90.0)
           (-45.0 45.0)
  end
  begin
     id 22 
     name lfingers
     direction 1 -4.48927e-011 2.35758e-026   
     length 0.452985   
     axis -1.50534e-014 90 90   XYZ
    dof rx
    limits (0.0 90.0)
  end
  begin
     id 23
     name lthumb
     direction 0.707107 -6.34898e-011 0.707107   
     length 0.650399   
     axis -90 45 5.69224e-014   XYZ
    dof rx rz
    limits (-45.0 45.0)
           (-45.0 45.0)
  end
  begin
     id 24 
     name rclavicle
     direction -0.988403 0.151789 0.00439714   
     length 3.6942  
     axis 0 0 0   XYZ 
    dof ry rz
    limits (-10.0 20.0)
           (-20.0 0.0)
  end
  begin
     id 25 
     name rhumerus
     direction -1 -4.48978e-011 1.62495e-027  
     length 5.22819   
     axis 180 30 90   XYZ
    dof rx ry rz
    limits (-90.0 60.0)
           (-90.0 90.0)
           (-90.0 90.0)
  end
  begin
     id 26 
     name rradius
     direction -1 -4.48961e-011 3.47796e-027   
     length 3.40764   
     axis 180 30 90   XYZ
    dof rx
    limits (-10.0 170.0)
  end
  begin
     id 27 
     name rwrist
     direction -1 -4.48949e-011 5.89602e-027   
     length 1.70382   
     axis -3.27506e-015 -90 -90   XYZ
    dof ry
    limits (-180.0 0.0)
  end
  begin
     id 28
     name rhand
     direction -1 -4.48977e-011 1.17973e-026   
     length 0.583255   
     axis -7.52654e-015 -90 -90   XYZ
    dof rx rz
    limits (-90.0 90.0)
           (-45.0 45.0)
  end
  begin
     id 29
     name rfingers
     direction -1 -4.49099e-011 2.36408e-026   
     length 0.470235   
     axis -1.50534e-014 -90 -90   XYZ
    dof rx
    limits (0.0 90.0)
  end
  begin
     id 30
     name rthumb
     direction -0.707107 -6.35011e-011 0.707107   
     length 0.675167   
     axis -90 -45 -5.69224e-014   XYZ
    dof rx rz
    limits (-45.0 45.0)
           (-45.0 45.0)
  end
:hierarchy
  begin
    root lhipjoint rhipjoint lowerback
    lhipjoint lfemur
    lfemur ltibia
    ltibia lfoot
    lfoot ltoes
    rhipjoint rfemur
    rfemur rtibia
    rtibia rfoot
    rfoot rtoes
    lowerback upperback
    upperback thorax
    thorax lowerneck lclavicle rclavicle
    lowerneck upperneck
    upperneck head
    lclavicle lhumerus
    lhumerus lradius
    lradius lwrist
    lwrist lhand lthumb
    lhand lfingers
    rclavicle rhumerus
    rhumerus rradius
    rradius rwrist
    rwrist rhand rthumb
    rhand rfingers
  end

#!OML:ASF G:\JayActor3\Patient Classification 1\Patient 1\Session 2\male.ASF
:FULLY-SPECIFIED
:DEGREES
624
root -16.3074 16.6507 -3.66271 684.735 -266.848 -764.378
lowerback 1.35193 -2.03781 -4.80002
upperback 0.368144 -2.77356 -0.0792494
thorax -0.155162 -1.38581 2.64051
lowerneck -12.8176 -1.95713 -1.80258
upperneck 7.38122 -2.95029 6.45206
head 4.4274 -1.09465 2.06758
rclavicle 1.92076e-014 1.43125e-014
rhumerus -65.4289 20.0809 -98.4839
rradius 45.8072
rwrist -8.33251
rhand -22.4518 0.965189
rfingers 7.12502
rthumb 3.97246 -28.9775
lclavicle 1.92076e-014 1.43125e-014
lhumerus -35.8459 -37.5502 98.6144
lradius 97.6414
lwrist 25.3121
lhand -17.5656 14.3708
lfingers 7.12502
lthumb 8.68951 44.172
rfemur -43.2699 10.0971 14.1122
rtibia 37.8475
rfoot -24.276 -7.06038
rtoes -2.40796
lfemur 13.7466 4.75361 -25.0685
ltibia 24.2255
lfoot 15.4102 9.88263
ltoes -14.3389
625
root -15.9577 16.665 -3.66255 683.316 -266.533 -765.458
lowerback 1.22639 -2.03317 -4.82793
upperback 0.395994 -2.75953 -0.129551
thorax -0.058455 -1.38131 2.59852
lowerneck -12.8232 -2.00953 -1.82734
upperneck 7.67396 -3.02032 6.31737
head 4.51918 -1.13349 2.02442
rclavicle -3.30231e-014 -1.85864e-014
rhumerus -64.8814 19.9948 -98.2391
rradius 45.5372
rwrist -7.87686
rhand -22.4732 0.95465
rfingers 7.12502
rthumb 3.95183 -28.9884
lclavicle -3.30231e-014 -1.85864e-014
lhumerus -36.7721 -37.5403 99.2398
lradius 96.1799
lwrist 25.374
lhand -17.1246 14.6256
lfingers 7.12502
lthumb 9.11507 44.4086
rfemur -41.9061 10.1189 14.2043
rtibia 38.3025
rfoot -24.0525 -7.0344
rtoes -1.16995
lfemur 12.3343 4.64086 -25.1467
ltibia 28.2362
lfoot 17.4852 10.3309
ltoes -11.814
626
root -15.6154 16.6686 -3.66166 682.058 -266.324 -766.287
lowerback 1.26472 -1.9929 -4.80037
upperback 0.451537 -2.70559 -0.171553
thorax -0.0304865 -1.3556 2.53999
lowerneck -12.8021 -2.06626 -1.85325
upperneck 7.89335 -3.09377 6.20856
head 4.58467 -1.17421 1.9892
rclavicle 3.49116e-014 3.67752e-015
rhumerus -64.1509 19.9803 -98.0035
rradius 45.2264
rwrist -7.36671
rhand -22.55 0.9083
rfingers 7.12502
rthumb 3.87769 -29.0362
lclavicle 3.49116e-014 3.67752e-015
lhumerus -37.7027 -37.4053 99.8233
lradius 94.533
lwrist 25.3283
lhand -16.8216 14.8821
lfingers 7.12502
lthumb 9.4075 44.6522
rfemur -40.481 10.254 14.4114
rtibia 39.1179
rfoot -23.9748 -7.11411
rtoes 0.116825
lfemur 10.7405 4.59834 -25.1441
ltibia 32.5895
lfoot 18.9197 10.3762
ltoes -9.91079
627
root -15.2816 16.662 -3.66095 680.784 -266.252 -767.032
lowerback 1.48476 -1.90996 -4.69459
upperback 0.538941 -2.60282 -0.198407
thorax -0.0781015 -1.30413 2.45938
lowerneck -12.75 -2.12509 -1.87941
upperneck 8.03277 -3.16773 6.12333
head 4.62089 -1.21562 1.96142
rclavicle -3.64273e-014 -6.65929e-015
rhumerus -63.2363 20.0396 -97.7766
rradius 44.8712
rwrist -6.84392
rhand -22.7868 0.900654
rfingers 7.12502
rthumb 3.649 -29.0479
lclavicle -3.64273e-014 -6.65929e-015
lhumerus -38.617 -37.1412 100.357
lradius 92.7134
lwrist 25.1996
lhand -16.6834 15.1357
lfingers 7.12502
lthumb 9.54085 44.8997
rfemur -39.0105 10.5206 14.7332
rtibia 40.1194
rfoot -24.0067 -7.27333
rtoes 1.37184
lfemur 9.00338 4.65659 -25.0434
ltibia 37.1894
lfoot 19.7156 9.90967
ltoes -8.66631
628
root -14.9565 16.6467 -3.66132 679.691 -266.34 -767.482
lowerback 1.89843 -1.78595 -4.47614
upperback 0.668843 -2.4518 -0.199035
thorax -0.197334 -1.22739 2.34781
lowerneck -12.6672 -2.18488 -1.91122
upperneck 8.07886 -3.23968 6.06371
head 4.62375 -1.2567 1.94285
rclavicle 1.00635e-014 6.21202e-015
rhumerus -62.1286 20.1728 -97.548
rradius 44.4699
rwrist -6.35751
rhand -23.1782 0.941468
rfingers 7.12502
rthumb 3.27098 -29.0132
lclavicle 1.00635e-014 6.21202e-015
lhumerus -39.4766 -36.7493 100.825
lradius 90.7202
lwrist 25.0138
lhand -16.728 15.4195
lfingers 7.12502
lthumb 9.49774 45.1855
rfemur -37.4946 10.9009 15.1953
rtibia 41.1508
rfoot -24.0433 -7.46719
rtoes 2.5889
lfemur 7.16503 4.81879 -24.8159
ltibia 41.932
lfoot 19.9436 8.96293
ltoes -8.23995
629
root -14.638 16.6255 -3.66322 679.505 -266.607 -766.926
lowerback 2.47402 -1.63071 -4.09603
upperback 0.843879 -2.25974 -0.156724
thorax -0.367238 -1.12948 2.19205
lowerneck -12.5677 -2.24297 -1.93279
upperneck 8.04463 -3.3075 6.0092
head 4.59881 -1.29674 1.92472
rclavicle -9.5603e-015 -7.05686e-015
rhumerus -60.833 20.3699 -97.3068
rradius 44.034
rwrist -5.9679
rhand -23.6943 1.02672
rfingers 7.12502
rthumb 2.77259 -28.935
lclavicle -9.5603e-015 -7.05686e-015
lhumerus -40.2637 -36.2354 101.225
lradius 88.5572
lwrist 24.7975
lhand -16.9617 15.7391
lfingers 7.12502
lthumb 9.2723 45.5152
rfemur -35.9326 11.3594 15.8546
rtibia 42.0909
rfoot -23.9494 -7.67635
rtoes 3.80361
lfemur 5.24807 5.06205 -24.4103
ltibia 46.7084
lfoot 19.6601 7.6846
ltoes -8.54468
630
root -14.3243 16.601 -3.66636 681.861 -267.066 -763.767
lowerback 3.15327 -1.46455 -3.50121
upperback 1.05814 -2.04435 -0.0483541
thorax -0.559301 -1.01966 1.98272
lowerneck -12.4674 -2.29504 -1.95588
upperneck 7.94629 -3.36508 5.96751
head 4.55385 -1.33203 1.91175
rclavicle 6.26482e-015 8.79622e-015
rhumerus -59.362 20.626 -97.0428
rradius 43.5802
rwrist -5.67094
rhand -24.3538 1.16858
rfingers 7.12502
rthumb 2.13571 -28.8005
lclavicle 6.26482e-015 8.79622e-015
lhumerus -40.9547 -35.6047 101.548
lradius 86.2211
lwrist 24.5713
lhand -17.4122 16.1277
lfingers 7.12502
lthumb 8.83758 45.9226
rfemur -34.3176 11.8402 16.7893
rtibia 42.8619
rfoot -23.6012 -7.92448
rtoes 5.15283
lfemur 3.23907 5.34636 -23.7622
ltibia 51.417
lfoot 18.9863 6.26918
ltoes -9.32456
631
root -14.0132 16.575 -3.66984 690.35 -267.691 -754.479
lowerback 3.84971 -1.30299 -2.65382
upperback 1.2938 -1.81536 0.144763
thorax -0.74126 -0.902906 1.71443
lowerneck -12.3887 -2.34031 -1.97336
upperneck 7.82365 -3.41326 5.92653
head 4.5045 -1.36246 1.89879
rclavicle 2.89651e-014 -3.60297e-016
rhumerus -57.7447 20.9209 -96.7416
rradius 43.1436
rwrist -5.46422
rhand -24.9996 1.28133
rfingers 7.12502
rthumb 1.51195 -28.6931
lclavicle 2.89651e-014 -3.60297e-016
lhumerus -41.5482 -34.8736 101.799
lradius 83.7111
lwrist 24.3345
lhand -18.0836 16.5611
lfingers 7.12502
lthumb 8.18967 46.3824
rfemur -32.6502 12.3003 18.0573
rtibia 43.4313
rfoot -23.0601 -8.23824
rtoes 6.67242
lfemur 1.10545 5.65287 -22.8072
ltibia 55.9694
lfoot 18.0108 4.90641
ltoes -10.1264
632
root -13.7038 16.5473 -3.67251 713.767 -268.3 -730.349
lowerback 4.46806 -1.15336 -1.55856
upperback 1.52716 -1.57506 0.427471
thorax -0.881261 -0.780025 1.39227
lowerneck -12.336 -2.38095 -1.98787
upperneck 7.69485 -3.4553 5.88508
head 4.45727 -1.38941 1.88559
rclavicle -4.69008e-015 -1.19271e-015
rhumerus -56.0139 21.2291 -96.3927
rradius 42.7677
rwrist -5.33075
rhand -25.5714 1.34762
rfingers 7.12502
rthumb 0.959683 -28.63
lclavicle -4.69008e-015 -1.19271e-015
lhumerus -42.0442 -34.0674 101.979
lradius 81.0289
lwrist 24.0767
lhand -18.9837 17.0621
lfingers 7.12502
lthumb 7.32087 46.9155
rfemur -30.9656 12.7123 19.6561
rtibia 43.8056
rfoot -22.5122 -8.61204
rtoes 8.27326
lfemur -1.21564 5.99252 -21.5311
ltibia 60.2938
lfoot 16.7167 3.66576
ltoes -11.066
